COMMAND:
ffmpeg -y -hide_banner -ss 20.8 -i /Volumes/AIGC/AI-CUT/projects/0622/结果/文案8/auto-edit/edit/visual_base_no_subs.mp4 -vf subtitles=/Volumes/AIGC/AI-CUT/projects/0622/结果/文案8/auto-edit/edit/master.srt:force_style='FontName=Heiti SC,FontSize=20,PrimaryColour=&H00FFFFFF,OutlineColour=&H00000000,Outline=2,Shadow=1,BorderStyle=3,BackColour=&H80000000,Alignment=2,MarginL=44,MarginR=44,MarginV=40' -frames:v 1 -q:v 2 /Volumes/AIGC/AI-CUT/projects/0622/结果/文案8/auto-edit/edit/subtitle_style_preview/high_risk_tool_preview.jpg

STDOUT:


STDERR:
Input #0, mov,mp4,m4a,3gp,3g2,mj2, from '/Volumes/AIGC/AI-CUT/projects/0622/结果/文案8/auto-edit/edit/visual_base_no_subs.mp4':
  Metadata:
    major_brand     : isom
    minor_version   : 512
    compatible_brands: isomiso2avc1mp41
    encoder         : Lavf62.3.100
  Duration: 00:00:33.67, start: 0.000000, bitrate: 2984 kb/s
  Stream #0:0[0x1](und): Video: h264 (High) (avc1 / 0x31637661), yuv420p(tv, bt709, progressive), 1280x720 [SAR 1:1 DAR 16:9], 2981 kb/s, 30 fps, 30 tbr, 15360 tbn (default)
    Metadata:
      handler_name    : VideoHandler
      vendor_id       : [0][0][0][0]
      encoder         : Lavc62.11.100 libx264
[Parsed_subtitles_0 @ 0xbc34383c0] libass API version: 0x1704000
[Parsed_subtitles_0 @ 0xbc34383c0] libass source: tarball: 0.17.4
[Parsed_subtitles_0 @ 0xbc34383c0] Shaper: FriBidi 1.0.16 (SIMPLE) HarfBuzz-ng 12.1.0 (COMPLEX)
[Parsed_subtitles_0 @ 0xbc34383c0] Using font provider coretext
Stream mapping:
  Stream #0:0 -> #0:0 (h264 (native) -> mjpeg (native))
Press [q] to stop, [?] for help
[Parsed_subtitles_0 @ 0xbc343b3c0] libass API version: 0x1704000
[Parsed_subtitles_0 @ 0xbc343b3c0] libass source: tarball: 0.17.4
[Parsed_subtitles_0 @ 0xbc343b3c0] Shaper: FriBidi 1.0.16 (SIMPLE) HarfBuzz-ng 12.1.0 (COMPLEX)
[Parsed_subtitles_0 @ 0xbc343b3c0] Using font provider coretext
[Parsed_subtitles_0 @ 0xbc343b3c0] fontselect: (Heiti SC, 400, 0) -> /System/Library/Fonts/STHeiti Medium.ttc, -1, STHeitiSC-Medium
Output #0, image2, to '/Volumes/AIGC/AI-CUT/projects/0622/结果/文案8/auto-edit/edit/subtitle_style_preview/high_risk_tool_preview.jpg':
  Metadata:
    major_brand     : isom
    minor_version   : 512
    compatible_brands: isomiso2avc1mp41
    encoder         : Lavf62.3.100
  Stream #0:0(und): Video: mjpeg, yuv420p(pc, bt709/smpte432/bt709, progressive), 1280x720 [SAR 1:1 DAR 16:9], q=2-31, 200 kb/s, 30 fps, 30 tbn (default)
    Metadata:
      encoder         : Lavc62.11.100 mjpeg
      handler_name    : VideoHandler
      vendor_id       : [0][0][0][0]
    Side data:
      cpb: bitrate max/min/avg: 0/0/200000 buffer size: 0 vbv_delay: N/A
[image2 @ 0xbc3434500] The specified filename '/Volumes/AIGC/AI-CUT/projects/0622/结果/文案8/auto-edit/edit/subtitle_style_preview/high_risk_tool_preview.jpg' does not contain an image sequence pattern or a pattern is invalid.
[image2 @ 0xbc3434500] Use a pattern such as %03d for an image sequence or use the -update option (with -frames:v 1 if needed) to write a single image.
[out#0/image2 @ 0xbc3438240] video:150KiB audio:0KiB subtitle:0KiB other streams:0KiB global headers:0KiB muxing overhead: unknown
frame=    1 fps=0.0 q=2.0 Lsize=N/A time=00:00:00.03 bitrate=N/A speed=0.672x elapsed=0:00:00.04    
